<svg xmlns="http://www.w3.org/2000/svg" version="1.1" viewBox="-5.0 -10.0 110.0 135.0">
 <path d="m27.32 14.281c-3.9805 0-7.2188-3.2383-7.2188-7.2188 0-0.75 0.60938-1.3594 1.3594-1.3594s1.3594 0.60938 1.3594 1.3594c0 2.4805 2.0195 4.4883 4.4883 4.4883h2.5c0.64844 0 1.3008 0.03125 1.9414 0.089844-1.1406 0.76953-2.1992 1.6484-3.1602 2.6289h-1.2695zm51.219-8.582c-0.75 0-1.3594 0.60938-1.3594 1.3594 0 2.4805-2.0195 4.4883-4.4883 4.4883h-2.5c-0.64844 0-1.3008 0.03125-1.9414 0.089844 1.1406 0.76953 2.1992 1.6484 3.1602 2.6289h1.2695c3.9805 0 7.2188-3.2383 7.2188-7.2188 0-0.75-0.60938-1.3594-1.3594-1.3594zm-25.52 83.211h-0.19141c-4.4102 1.7617-9.2109 2.7188-14.238 2.7188h14.422c2.3281 0.011719 2.9883 0.96875 3.3008 1.7891 0.21094 0.53906 0.71875 0.87109 1.2695 0.87109 0.16016 0 0.32812-0.03125 0.48828-0.089843 0.69922-0.26953 1.0508-1.0586 0.78125-1.7617-0.62109-1.6016-2.1211-3.5117-5.8398-3.5391zm-7.7578-21.082v-15.262c-8.5898-0.62891-15.941-5.75-19.719-13.012v38.121c4.8906-0.67188 8.6719-4.8711 8.6719-9.9297v-4.3789c0-0.75 0.60938-1.3594 1.3594-1.3594s1.3594 0.60938 1.3594 1.3594v4.3789c0 6.5703-5 12-11.391 12.68v8.4492c10.988-0.69922 19.719-9.8711 19.719-21.039zm7.6992-15.199h-4.9805v15.199c0 9.1406-5.1797 17.102-12.762 21.09h3.3711c19.781 0 35.879-16.09 35.879-35.879v-13.48c-4.0391 7.7617-12.16 13.078-21.5 13.078zm-2.9609-27.07c2.3594-6.3008 7.5898-11.199 14.09-13.121-2.1719-0.96875-4.5703-1.5117-7.1016-1.5117h-13.969c-2.5312 0-4.9297 0.53906-7.1016 1.5117 6.5 1.9219 11.73 6.8203 14.09 13.121zm24.461 2.8398c0 11.859-9.6484 21.5-21.5 21.5h-5.9219c-11.859 0-21.5-9.6484-21.5-21.5 0-5.6797 2.7305-10.738 6.9414-13.941 9.1211 1.3008 16.16 9.1602 16.16 18.629v5.8281c0 0.75 0.60938 1.3594 1.3594 1.3594s1.3594-0.60938 1.3594-1.3594v-5.8281c0-9.4688 7.0391-17.328 16.16-18.629 4.2188 3.1914 6.9414 8.25 6.9414 13.93zm-33.191 2.2422c0-2.0898-1.6992-3.7891-3.7891-3.7891-2.0898 0-3.7891 1.6992-3.7891 3.7891s1.6992 3.7891 3.7891 3.7891c2.0898 0 3.7891-1.6992 3.7891-3.7891zm25.031 0c0-2.0898-1.6992-3.7891-3.7891-3.7891-2.0898 0-3.7891 1.6992-3.7891 3.7891s1.6992 3.7891 3.7891 3.7891c2.0898 0 3.7891-1.6992 3.7891-3.7891z"/>
<text x="0.0" y="117.5" font-size="5.0" font-weight="bold" font-family="Arbeit Regular, Helvetica, Arial-Unicode, Arial, Sans-serif" fill="#000000">Created by Wehape</text><text x="0.0" y="122.5" font-size="5.0" font-weight="bold" font-family="Arbeit Regular, Helvetica, Arial-Unicode, Arial, Sans-serif" fill="#000000">from Noun Project</text></svg>